<?xml version="1.0" standalone="no"?>
<!DOCTYPE svg PUBLIC "-//W3C//DTD SVG 20010904//EN"
 "http://www.w3.org/TR/2001/REC-SVG-20010904/DTD/svg10.dtd">
<svg version="1.0" xmlns="http://www.w3.org/2000/svg"
 width="200.000000pt" height="200.000000pt" viewBox="0 0 200.000000 200.000000"
 preserveAspectRatio="xMidYMid meet">
<metadata>
Created by potrace 1.11, written by Peter Selinger 2001-2013
</metadata>
<g transform="translate(0.000000,200.000000) scale(0.100000,-0.100000)"
fill="#000000" stroke="none">
<path d="M693 1874 c-2 -7 4 -25 13 -40 10 -15 20 -36 21 -48 2 -16 1 -18 -6
-6 -5 8 -8 17 -6 21 3 3 -6 18 -19 32 -13 14 -21 29 -18 32 4 3 -1 3 -11 -1
-13 -4 -15 -10 -7 -19 5 -6 6 -16 2 -20 -4 -5 1 -5 11 -2 11 4 16 3 12 -3 -3
-6 -1 -10 6 -10 7 0 10 -3 7 -6 -10 -9 -49 16 -43 27 4 5 -1 9 -10 9 -10 0
-13 -5 -9 -12 5 -8 0 -7 -11 2 -11 9 -16 10 -11 3 4 -8 2 -13 -5 -13 -6 0 -18
-8 -26 -17 -8 -10 -12 -13 -9 -6 3 6 -12 2 -35 -9 -27 -13 -39 -24 -35 -33 3
-8 -3 -19 -14 -25 -11 -6 -20 -8 -20 -4 0 3 -7 1 -16 -7 -13 -10 -17 -10 -25
2 -6 10 -9 10 -9 2 0 -7 -7 -13 -16 -13 -9 0 -30 -15 -47 -32 -17 -18 -27 -27
-23 -20 12 20 -7 14 -34 -11 -27 -25 -31 -27 -56 -27 -10 0 -14 -6 -11 -14 6
-14 -10 -36 -27 -36 -5 0 -2 6 8 13 16 12 16 14 2 14 -17 0 -18 -3 -18 -62 0
-51 1 -53 11 -36 7 11 12 9 22 -10 11 -21 10 -22 -2 -12 -10 8 -20 9 -29 3
-14 -9 -13 -11 9 -14 19 -2 24 -16 11 -31 -10 -12 -10 -18 1 -32 10 -11 10
-14 2 -9 -7 4 -13 2 -13 -3 0 -21 -2 -26 -12 -38 -10 -12 -4 -17 15 -14 4 1 3
-9 -4 -21 -9 -17 -9 -23 0 -26 6 -2 16 -13 22 -25 9 -20 9 -20 -4 -4 -18 22
-28 22 -20 0 5 -12 3 -14 -7 -8 -9 5 -11 4 -6 -4 4 -6 12 -8 18 -5 7 5 8 2 3
-7 -13 -19 -14 -49 -2 -49 5 0 7 9 4 20 -3 12 -1 18 5 14 5 -3 7 -15 5 -25 -4
-14 -1 -19 11 -17 25 4 32 19 19 40 -9 13 -9 23 -1 36 12 19 7 45 -7 37 -5 -4
-17 -2 -26 4 -15 8 -13 9 11 7 16 -2 33 -10 38 -19 5 -10 6 -17 2 -17 -3 0 -1
-7 6 -15 10 -12 10 -18 0 -30 -7 -8 -9 -15 -6 -15 4 0 2 -9 -4 -19 -7 -15 -18
-19 -42 -16 -31 4 -32 3 -14 -10 16 -12 17 -15 4 -15 -11 0 -14 -7 -10 -25 2
-14 9 -22 16 -19 6 3 4 0 -4 -8 -11 -10 -15 -35 -15 -98 0 -47 -4 -93 -8 -102
-4 -10 -4 -18 0 -18 4 0 8 -108 8 -241 0 -201 2 -242 15 -253 8 -7 65 -40 125
-72 61 -32 142 -75 180 -96 174 -94 238 -123 242 -110 3 6 9 12 15 12 8 0 255
139 338 190 8 5 47 27 85 49 39 21 76 49 83 60 7 12 19 21 26 21 8 0 16 4 18
8 2 5 30 23 63 42 33 18 63 38 67 44 4 6 8 8 8 4 0 -8 322 179 330 192 5 8 3
399 -3 524 l-3 69 -154 85 c-85 46 -160 85 -166 86 -7 1 -18 7 -25 13 -8 6
-47 28 -87 49 -40 22 -83 44 -95 51 -15 9 -25 9 -34 1 -8 -6 -16 -8 -20 -4 -3
3 -1 6 5 6 17 0 15 17 -4 24 -8 3 -12 2 -9 -4 3 -6 1 -10 -4 -10 -6 0 -11 7
-11 15 0 8 -7 15 -16 15 -9 0 -23 8 -31 18 -10 11 -12 12 -8 2 4 -8 -1 -6 -9
4 -14 18 -21 15 -17 -6 1 -10 -39 -31 -47 -24 -3 3 0 6 7 6 7 0 9 4 6 10 -3 5
0 7 7 5 10 -4 14 2 14 19 0 14 -3 23 -7 20 -4 -2 -10 0 -14 6 -4 6 -10 8 -15
5 -5 -3 -15 1 -23 9 -8 8 -17 12 -21 9 -3 -4 -6 -1 -6 6 0 7 -4 10 -9 6 -5 -3
-17 2 -25 11 -9 8 -16 12 -16 7 0 -4 -6 -1 -13 8 -12 15 -33 26 -51 27 -5 0
-12 6 -17 13 -4 7 -15 14 -24 15 -9 1 -26 11 -37 21 -11 10 -21 17 -22 15 0
-2 -14 2 -31 9 -42 17 -66 19 -72 3z m59 -21 c10 -9 18 -21 18 -26 0 -6 -7 -2
-16 9 -15 18 -15 18 -8 -5 4 -17 3 -21 -6 -16 -6 4 -9 16 -7 27 4 14 2 18 -9
14 -8 -3 -14 -1 -14 4 0 15 21 12 42 -7z m51 -18 c-3 -9 -8 -14 -10 -11 -3 3
-2 9 2 15 9 16 15 13 8 -4z m27 -16 c0 -5 4 -7 10 -4 6 4 7 -1 4 -12 -5 -16
-4 -16 10 1 9 11 16 15 16 9 0 -6 -6 -16 -14 -22 -11 -9 -17 -6 -30 14 -9 14
-12 25 -6 25 5 0 10 -5 10 -11z m-207 -24 c-3 -10 0 -15 8 -13 9 2 13 -5 12
-20 -2 -13 1 -21 7 -17 10 6 35 -33 26 -43 -3 -3 -6 0 -6 7 0 7 -4 9 -10 6 -6
-4 -7 1 -4 12 5 16 4 16 -10 -2 -16 -18 -16 -18 -12 18 3 24 1 36 -6 34 -7 -1
-14 6 -16 16 -2 9 1 17 7 17 6 0 8 -7 4 -15z m69 -9 c4 3 11 -4 18 -15 7 -14
7 -21 0 -21 -5 0 -10 7 -10 16 0 8 -4 13 -9 10 -5 -3 -20 3 -32 15 l-24 20 26
-15 c14 -9 28 -13 31 -10z m112 13 c-2 -4 3 -9 11 -13 21 -8 7 -38 -17 -34
-10 2 -19 8 -19 13 0 6 -10 15 -22 22 -12 7 -18 12 -14 13 17 0 47 -21 42 -31
-4 -5 0 -9 8 -9 27 0 27 14 0 31 -24 16 -25 18 -6 16 12 0 20 -4 17 -8z m106
-20 c0 -6 -4 -7 -10 -4 -5 3 -10 11 -10 16 0 6 5 7 10 4 6 -3 10 -11 10 -16z
m-300 -14 c14 -19 14 -19 -2 -6 -10 7 -18 18 -18 24 0 6 1 8 3 6 1 -2 9 -13
17 -24z m284 -15 c-6 -5 -24 21 -24 34 0 6 6 1 14 -10 8 -10 12 -21 10 -24z
m-352 23 c-6 -2 -10 -9 -6 -14 3 -5 1 -9 -5 -9 -5 0 -12 4 -15 9 -6 9 10 19
29 19 6 0 4 -2 -3 -5z m399 -23 c5 0 9 -5 9 -11 0 -8 -5 -7 -16 2 -13 11 -15
9 -9 -17 5 -24 4 -25 -4 -7 -5 11 -7 32 -3 45 5 18 7 19 10 6 2 -10 8 -18 13
-18z m-361 4 c0 -8 4 -13 8 -10 4 2 14 1 22 -4 11 -7 9 -9 -8 -7 -23 1 -54 37
-32 37 5 0 10 -7 10 -16z m124 -46 c-8 -12 11 -9 24 4 17 17 15 28 -5 22 -15
-5 -16 -4 -3 5 11 8 18 7 28 -6 6 -9 12 -22 11 -27 0 -6 -3 -5 -6 2 -4 10 -9
9 -24 -4 -15 -13 -22 -15 -31 -6 -7 7 -9 12 -4 12 4 0 -2 15 -14 33 l-22 32
26 -29 c13 -17 23 -33 20 -38z m60 46 c9 -24 2 -26 -12 -4 -7 11 -8 20 -3 20
5 0 12 -7 15 -16z m100 0 c10 -25 -1 -29 -14 -5 -6 12 -7 21 -1 21 5 0 12 -7
15 -16z m-313 -31 c-4 -16 -11 -26 -16 -25 -4 2 -11 -2 -15 -8 -4 -7 -7 -1 -7
14 0 15 3 29 8 32 5 3 6 -1 3 -9 -3 -8 -1 -18 5 -22 6 -3 11 2 11 13 0 16 8
32 16 32 1 0 -1 -12 -5 -27z m295 -19 c-7 -18 -32 -13 -28 5 1 6 -4 11 -11 11
-27 0 -27 -14 0 -33 16 -10 20 -16 10 -13 -11 3 -20 0 -23 -9 -4 -8 -11 -15
-17 -15 -5 0 -2 8 7 19 15 16 15 19 2 24 -23 9 -8 39 18 35 11 -2 20 -9 19
-16 -2 -6 2 -12 8 -12 7 0 9 10 5 28 -5 22 -4 24 5 9 6 -10 8 -25 5 -33z m42
12 c-7 -8 -15 -12 -17 -11 -5 6 10 25 20 25 5 0 4 -6 -3 -14z m120 -4 c-10 -2
-18 -8 -18 -13 0 -5 -5 -9 -10 -9 -6 0 -6 7 2 19 7 12 18 17 27 13 14 -6 14
-7 -1 -10z m-389 -28 c-6 -8 -16 -14 -22 -14 -6 0 -2 6 9 14 18 14 18 15 -3
13 -13 -1 -23 -7 -23 -14 0 -17 -17 -17 -26 0 -4 6 -4 9 1 5 5 -5 15 1 22 12
12 16 18 18 34 9 16 -8 18 -13 8 -25z m351 32 c0 -3 -4 -8 -10 -11 -5 -3 -10
-1 -10 4 0 6 5 11 10 11 6 0 10 -2 10 -4z m-480 -16 c-8 -5 -18 -6 -22 -4 -4
3 -8 -2 -8 -10 0 -9 -5 -16 -10 -16 -22 0 9 36 32 37 17 2 19 0 8 -7z m420 0
c0 -22 2 -25 21 -32 12 -5 17 -13 13 -19 -5 -9 1 -10 22 -5 24 5 26 4 11 -5
-20 -12 -52 -5 -43 10 5 8 -19 18 -62 27 -31 6 -24 15 7 9 30 -5 33 -4 21 10
-8 10 -9 15 -1 15 6 0 11 -4 11 -10z m140 0 c0 -5 -4 -10 -10 -10 -5 0 -10 5
-10 10 0 6 5 10 10 10 6 0 10 -4 10 -10z m-673 -35 c-17 -19 -33 -35 -35 -35
-3 0 2 8 11 18 10 10 17 23 17 29 0 10 14 20 32 22 3 1 -8 -15 -25 -34z m50
14 c-1 -12 -12 -26 -24 -32 -12 -5 -20 -14 -17 -18 5 -9 -66 -43 -73 -35 -3 2
11 10 31 17 19 7 33 16 30 21 -3 4 2 11 10 14 9 3 13 10 10 15 -3 5 2 6 11 3
9 -4 15 -3 14 2 -2 14 1 34 5 34 3 0 4 -10 3 -21z m243 0 c0 -14 -17 -10 -23
5 -4 10 -1 13 9 9 7 -3 14 -9 14 -14z m-173 -11 c-3 -8 -6 -5 -6 6 -1 11 2 17
5 13 3 -3 4 -12 1 -19z m253 12 c0 -5 -4 -10 -10 -10 -5 0 -10 5 -10 10 0 6 5
10 10 10 6 0 10 -4 10 -10z m210 0 c8 -5 12 -11 10 -14 -3 -2 -14 2 -24 10
-22 15 -10 19 14 4z m48 -4 c-7 -8 -15 -12 -17 -11 -5 6 10 25 20 25 5 0 4 -6
-3 -14z m59 2 c-10 -7 -19 -24 -22 -37 -2 -13 -7 -26 -10 -30 -3 -3 -3 10 0
28 5 30 4 33 -10 21 -10 -8 -15 -9 -15 -1 0 6 5 12 10 12 6 1 14 2 19 3 5 0
13 4 17 9 4 4 12 7 18 7 5 0 2 -6 -7 -12z m-532 -25 c-11 -7 -24 -13 -29 -12
-6 0 -5 3 2 6 6 2 10 9 7 14 -4 5 2 6 11 2 13 -5 15 -3 9 7 -6 9 -4 11 5 5 10
-6 9 -11 -5 -22z m100 17 c-3 -5 -1 -10 4 -10 6 0 11 -5 11 -11 0 -8 -4 -8
-14 1 -12 9 -15 8 -13 -9 2 -26 27 -24 44 4 7 11 12 16 12 10 1 -33 -48 -56
-68 -32 -8 10 -6 19 5 35 15 22 31 32 19 12z m90 -20 c0 -7 -6 -14 -13 -16 -7
-1 -8 0 -2 3 17 8 11 23 -7 16 -11 -4 -14 -3 -9 6 10 15 31 9 31 -9z m138 1
c-4 -14 14 -15 20 -1 3 6 4 5 3 -2 -2 -7 -9 -13 -17 -13 -8 0 -13 6 -11 13 1
6 -3 12 -9 12 -7 0 -9 -10 -5 -27 5 -23 4 -25 -5 -10 -13 22 -4 51 14 44 6 -2
11 -10 10 -16z m-418 -1 c-3 -5 -3 -16 1 -22 6 -9 11 -5 16 12 l7 25 -2 -25
c-1 -14 -8 -24 -15 -22 -17 3 -15 -13 3 -28 16 -14 20 -46 6 -54 -5 -3 -14 1
-21 9 -10 12 -10 18 -1 29 8 9 8 16 2 20 -5 4 -8 19 -7 34 4 32 4 32 12 32 3
0 2 -4 -1 -10z m102 -15 c-16 -14 -33 -23 -38 -20 -5 4 -9 -3 -9 -14 0 -11 -4
-22 -9 -25 -5 -4 -6 5 -2 21 4 14 15 27 25 29 11 1 26 10 35 18 8 9 18 16 21
16 3 0 -8 -12 -23 -25z m40 4 c-1 -21 -37 -49 -37 -29 0 5 7 10 15 10 8 0 14
3 14 8 -2 13 1 32 5 32 3 0 4 -9 3 -21z m163 -9 c-6 -12 -14 -20 -17 -17 -2 3
1 14 8 26 17 26 24 19 9 -9z m55 11 c-3 -6 -11 -11 -16 -11 -5 0 -4 6 3 14 14
16 24 13 13 -3z m-482 -22 c-17 -17 -37 -1 -22 17 8 10 15 12 23 4 7 -7 7 -13
-1 -21z m621 -30 c-2 -4 5 -11 17 -14 11 -4 18 -9 16 -12 -3 -2 -15 1 -27 7
-12 6 -19 14 -16 17 3 3 -4 20 -15 37 l-21 31 26 -29 c13 -17 23 -33 20 -37z
m199 43 c-3 -14 8 -16 23 -4 5 4 4 1 -2 -7 -13 -14 -38 -6 -29 10 9 14 -18 11
-41 -6 -12 -8 -24 -11 -28 -8 -3 3 -6 -1 -6 -10 0 -9 -5 -17 -10 -17 -7 0 -7
7 0 21 7 11 14 18 17 15 3 -3 15 1 27 10 24 16 52 14 49 -4z m-139 -7 c-10 -8
-23 -14 -29 -14 -5 0 -1 6 9 14 11 8 24 15 30 15 5 0 1 -7 -10 -15z m-319 -14
c-3 -11 -1 -22 5 -26 5 -3 10 1 10 9 0 9 5 16 10 16 7 0 7 -6 0 -20 -6 -11
-16 -17 -25 -14 -16 7 -18 14 -9 38 9 23 17 20 9 -3z m79 -5 c-3 -9 -10 -16
-15 -16 -5 0 -4 9 3 20 14 22 21 20 12 -4z m76 -20 c-1 -6 -6 -1 -13 12 -14
25 -29 20 -19 -6 5 -14 4 -15 -10 -2 -14 13 -14 16 1 27 13 10 18 9 29 -4 6
-9 12 -22 12 -27z m70 24 c7 -14 7 -20 0 -20 -5 0 -10 7 -10 15 0 9 -6 12 -15
8 -14 -5 -14 -7 0 -23 8 -9 15 -24 15 -34 0 -9 5 -14 10 -11 6 3 13 -1 16 -9
3 -9 10 -13 15 -10 5 3 6 -3 2 -13 -6 -16 -5 -17 13 -3 18 14 18 14 5 -3 -14
-18 -16 -18 -28 -1 -7 10 -13 21 -13 26 0 4 -5 7 -12 6 -6 -2 -14 6 -16 17 -2
11 -11 27 -19 37 -13 14 -12 17 4 27 23 13 21 14 33 -9z m215 0 c3 -5 1 -10
-4 -10 -6 0 -11 5 -11 10 0 6 2 10 4 10 3 0 8 -4 11 -10z m-855 -10 c0 -5 -4
-10 -10 -10 -5 0 -10 5 -10 10 0 6 5 10 10 10 6 0 10 -4 10 -10z m154 -22 c-3
-4 -11 -8 -17 -7 -9 0 -9 2 0 5 7 3 9 13 6 22 -4 14 -3 14 5 2 6 -8 8 -18 6
-22z m109 -5 c-9 -7 -22 -13 -27 -12 -6 0 -5 3 2 6 6 2 10 9 7 14 -4 5 1 6 10
3 11 -5 14 -2 9 12 -5 16 -4 16 5 4 8 -11 7 -18 -6 -27z m77 25 c0 -6 -3 -8
-6 -5 -4 3 -16 2 -28 -4 -20 -10 -20 -10 -2 5 24 19 36 20 36 4z m398 -8 c-7
-10 -14 -18 -15 -16 -6 6 9 36 18 36 5 0 4 -9 -3 -20z m80 0 c-7 -10 -14 -17
-17 -15 -4 4 18 35 25 35 2 0 -1 -9 -8 -20z m102 12 c0 -4 -9 -15 -19 -24 -18
-16 -20 -15 -18 2 1 11 6 16 16 12 9 -3 12 -1 7 6 -4 7 -2 12 3 12 6 0 11 -3
11 -8z m-540 -12 c0 -5 -7 -10 -15 -10 -9 0 -12 -6 -9 -15 5 -12 9 -13 20 -4
8 7 16 10 19 8 2 -3 -5 -10 -15 -17 -16 -10 -21 -9 -30 8 -8 15 -6 21 7 29 23
13 23 13 23 1z m-344 -12 c5 -8 2 -9 -11 -5 -14 6 -16 3 -12 -14 7 -24 -1 -49
-15 -49 -5 0 -6 5 -3 10 3 6 1 10 -4 10 -6 0 -11 5 -11 11 0 8 6 7 16 -2 15
-12 16 -11 10 8 -11 35 13 59 30 31z m78 3 c3 -5 -1 -14 -9 -21 -12 -10 -18
-10 -29 -1 -10 8 -16 9 -21 1 -3 -5 -11 -10 -17 -10 -5 0 0 9 13 20 25 21 54
26 63 11z m342 -6 c-3 -9 1 -18 9 -21 8 -4 15 -11 15 -16 0 -6 -6 -6 -14 2
-13 10 -15 7 -13 -17 1 -19 -2 -27 -12 -25 -9 2 -11 -3 -7 -13 3 -9 2 -13 -4
-10 -6 3 -10 1 -10 -6 0 -7 -3 -10 -6 -7 -9 10 16 49 26 43 6 -4 8 8 6 27 -3
33 1 58 11 58 3 0 2 -7 -1 -15z m67 0 c8 -20 -7 -27 -35 -15 -21 10 -20 10 6
5 26 -6 28 -4 17 9 -8 9 -9 16 -3 16 5 0 12 -7 15 -15z m69 -17 c-8 -8 -17 -9
-34 0 -22 11 -22 11 5 6 23 -5 26 -4 21 12 -6 16 -5 17 7 7 10 -10 10 -16 1
-25z m198 1 c7 -12 7 -20 0 -24 -13 -8 -30 3 -30 18 0 7 4 6 10 -3 5 -8 12
-12 15 -8 3 3 -2 13 -11 23 -16 16 -18 16 -30 -7 -7 -12 -13 -19 -14 -15 0 5
5 17 10 27 12 22 36 17 50 -11z m70 21 c-8 -5 -18 -6 -22 -4 -13 8 -9 -10 5
-26 10 -12 9 -12 -5 -1 -15 11 -18 11 -18 1 0 -8 -3 -11 -6 -8 -11 12 15 44
38 45 17 2 19 0 8 -7z m-880 -8 c0 -5 -12 -14 -27 -21 l-28 -12 25 21 c29 22
30 23 30 12z m340 -21 c-6 -12 -16 -19 -22 -15 -7 5 -9 -2 -4 -22 5 -24 4 -26
-5 -11 -13 22 -4 51 13 41 8 -5 9 -2 5 10 -4 10 -3 15 3 11 6 -3 10 -1 10 6 0
7 3 10 6 7 3 -4 1 -16 -6 -27z m388 -4 c13 5 14 3 6 -6 -14 -15 -42 -3 -65 26
-10 12 -6 11 14 -4 16 -13 35 -19 45 -16z m-438 4 c-13 -11 -27 -18 -31 -16
-3 3 -11 -7 -17 -20 -12 -27 -27 -32 -38 -13 -5 8 -2 9 10 5 14 -6 17 -3 12 8
-3 9 -2 14 3 11 5 -3 12 1 15 10 4 9 9 14 13 11 3 -4 15 0 27 8 30 22 35 18 6
-4z m-102 -31 c3 -7 -1 -10 -9 -7 -8 2 -13 9 -12 15 2 6 -6 10 -17 9 -11 -1
-20 -6 -20 -11 0 -5 -3 -6 -6 -3 -4 4 -1 13 6 22 11 13 16 14 33 2 12 -8 23
-20 25 -27z m253 31 c-9 -6 -10 -11 -2 -15 8 -5 5 -16 -9 -35 -10 -16 -17 -31
-14 -34 3 -3 -4 -10 -15 -17 -14 -7 -21 -7 -21 0 0 5 7 10 17 10 9 0 13 3 10
6 -4 4 2 19 13 34 18 26 18 40 -2 40 -4 0 -7 -6 -5 -12 1 -8 -7 -12 -21 -11
-13 2 -21 -1 -17 -7 5 -9 -25 -30 -42 -30 -4 1 3 7 17 15 14 7 25 17 25 22 0
4 8 7 18 6 10 -2 16 1 12 6 -3 6 3 14 12 20 22 12 44 14 24 2z m-331 -44 c0
-4 5 -5 10 -2 6 3 13 -2 16 -12 3 -10 10 -27 16 -38 10 -18 9 -19 -5 -6 -10 7
-17 22 -17 33 0 11 -5 16 -11 13 -6 -4 -8 -14 -5 -22 3 -8 1 -11 -4 -8 -6 4
-10 12 -9 18 3 25 -1 38 -11 32 -6 -4 -7 1 -3 12 6 16 4 16 -16 -2 l-23 -20
24 -6 c22 -7 22 -7 1 -8 -32 -1 -37 15 -11 39 21 20 23 20 35 4 7 -10 13 -22
13 -27z m244 19 c-3 -9 -10 -16 -15 -16 -5 0 -4 9 3 20 14 22 21 20 12 -4z
m222 12 c5 -7 2 -9 -8 -5 -10 3 -19 -3 -27 -20 -7 -14 -15 -23 -18 -19 -4 3
-18 -1 -32 -10 l-26 -15 24 20 c12 12 26 19 31 16 4 -2 12 7 18 20 12 27 27
32 38 13z m58 -4 c3 -8 2 -12 -4 -9 -6 3 -10 10 -10 16 0 14 7 11 14 -7z
m-635 -39 c0 -5 -4 -3 -9 5 -5 8 -9 22 -9 30 0 16 17 -16 18 -35z m613 15 c-2
-8 3 -10 13 -6 9 3 14 2 11 -3 -3 -5 1 -12 10 -15 8 -3 12 -10 9 -16 -3 -5 -2
-10 3 -10 18 0 20 13 5 39 l-15 26 20 -25 c18 -21 19 -27 7 -39 -13 -13 -40
-7 -30 8 2 5 -7 13 -21 20 -14 6 -22 16 -18 22 4 8 -1 9 -17 4 -19 -5 -21 -4
-9 4 18 13 36 8 32 -9z m182 5 c11 -8 16 -15 10 -15 -5 0 -18 7 -28 15 -11 8
-16 15 -10 15 5 0 18 -7 28 -15z m-636 -20 c-3 -3 -9 2 -12 12 -6 14 -5 15 5
6 7 -7 10 -15 7 -18z m137 -15 c-4 -7 -17 -9 -33 -5 -22 5 -24 4 -13 -9 8 -9
9 -16 3 -16 -12 0 -23 26 -15 34 3 3 17 3 30 0 19 -5 22 -3 17 12 -6 15 -4 16
6 7 7 -6 9 -17 5 -23z m292 -22 c4 1 8 -3 8 -10 0 -6 -6 -12 -13 -14 -7 -1 -8
0 -2 3 5 2 10 9 10 14 0 6 -5 7 -11 4 -6 -4 -13 2 -16 14 -3 11 -9 18 -14 15
-5 -3 -6 3 -2 13 6 14 9 13 19 -12 7 -17 16 -29 21 -27z m188 43 c3 -5 0 -13
-6 -17 -8 -4 -9 -3 -5 4 5 8 -1 12 -14 12 -12 0 -19 -4 -15 -9 3 -6 -4 -15
-15 -21 -13 -7 -20 -7 -20 0 0 5 7 10 15 10 8 0 14 3 14 8 -3 17 2 22 20 22
11 0 22 -4 26 -9z m-385 -16 c-7 -8 -17 -15 -23 -15 -6 0 -2 7 9 15 25 19 30
19 14 0z m234 -24 c-3 -3 -15 6 -27 18 l-22 24 27 -19 c14 -10 24 -21 22 -23z
m-574 19 c11 -8 8 -9 -12 -4 -18 4 -28 2 -28 -6 0 -6 5 -8 10 -5 6 3 13 -1 16
-10 6 -14 8 -14 25 1 17 15 45 11 34 -6 -2 -4 5 -21 16 -36 l21 -29 -26 28
c-15 16 -24 33 -21 38 9 13 -9 11 -23 -3 -17 -17 -15 -29 3 -22 8 4 15 4 15 1
0 -3 -7 -8 -15 -11 -10 -4 -20 3 -27 19 -6 13 -14 22 -19 20 -11 -7 -22 13
-14 25 8 13 26 13 45 0z m160 0 c11 -8 8 -9 -12 -4 -18 4 -28 2 -28 -6 0 -6 4
-8 10 -5 5 3 15 -5 21 -19 13 -28 32 -26 22 2 -4 10 -3 13 3 7 5 -5 12 -12 16
-15 4 -3 -2 -11 -13 -18 -17 -11 -21 -9 -31 13 -6 13 -14 22 -19 20 -11 -7
-22 13 -14 25 8 13 26 13 45 0z m103 -15 c-3 -9 -8 -14 -10 -11 -3 3 -2 9 2
15 9 16 15 13 8 -4z m209 8 c-6 -2 -10 -9 -7 -14 4 -5 -1 -6 -10 -3 -11 5 -14
2 -9 -12 5 -16 4 -16 -5 -4 -8 11 -7 18 6 28 9 6 22 12 27 11 6 0 5 -3 -2 -6z
m-162 -27 c0 -6 -5 -18 -11 -26 -8 -12 -9 -10 -4 7 3 12 1 24 -5 28 -5 3 -10
-1 -10 -9 0 -9 -5 -16 -10 -16 -7 0 -7 6 0 20 11 20 40 18 40 -4z m181 -3 c-5
-18 -15 -27 -31 -30 -19 -2 -21 -1 -10 6 8 5 18 7 22 5 4 -3 8 3 8 14 0 16 8
32 16 32 1 0 -1 -12 -5 -27z m-85 2 c-23 -18 -36 -19 -36 -4 0 5 4 8 8 5 4 -2
14 -1 22 5 23 14 27 10 6 -6z m-326 -10 c0 -9 6 -12 15 -9 8 4 15 4 15 1 0
-16 -31 -13 -40 3 -7 14 -7 20 0 20 5 0 10 -7 10 -15z m152 3 c-17 -17 -15
-33 3 -18 10 9 15 9 15 1 0 -6 -4 -11 -10 -11 -5 0 -10 -8 -11 -17 0 -14 -2
-13 -9 5 -10 25 -4 52 13 52 7 0 7 -4 -1 -12z m334 -4 c-5 -12 -1 -14 17 -10
12 3 16 3 9 0 -6 -3 -9 -10 -6 -16 4 -6 -2 -6 -14 1 -18 10 -22 41 -5 41 3 0
2 -7 -1 -16z m-581 -53 c-13 -14 -40 -6 -30 9 3 4 -2 10 -10 14 -17 6 -20 26
-4 26 5 0 8 -4 5 -9 -3 -5 1 -12 10 -15 8 -3 12 -10 9 -16 -3 -5 -2 -10 3 -10
18 0 20 13 5 39 l-15 26 20 -25 c18 -21 19 -27 7 -39z m160 0 c-14 -14 -39 -6
-30 10 4 5 2 9 -4 9 -5 0 -12 -5 -14 -10 -3 -6 -4 -5 -3 2 2 7 9 13 17 13 8 0
13 -6 12 -12 -2 -7 1 -13 5 -13 18 0 20 14 5 39 l-15 26 20 -25 c18 -21 19
-27 7 -39z m285 49 c0 -5 -6 -10 -13 -10 -7 0 -13 -10 -14 -22 -2 -22 -1 -22
13 -4 8 11 14 15 14 9 0 -7 -5 -15 -10 -18 -8 -5 -7 -11 0 -20 13 -16 4 -39
-11 -29 -13 8 -7 -28 6 -39 6 -5 4 -7 -5 -4 -18 4 -21 53 -2 50 17 -4 15 5 -9
35 l-20 27 21 17 c26 21 30 22 30 8z m-114 -32 c-18 -26 -22 -17 -5 14 6 11
13 17 16 15 3 -3 -2 -16 -11 -29z m50 5 c2 -11 -4 -27 -13 -34 -12 -10 -15
-10 -9 -1 4 6 2 12 -3 12 -6 0 -11 5 -11 11 0 8 5 7 16 -2 14 -11 15 -10 12 7
-1 10 -7 23 -13 27 -6 5 -4 7 4 5 8 -2 16 -13 17 -25z m154 -4 c0 -13 4 -18
12 -13 7 4 8 3 4 -5 -10 -16 -23 -6 -28 24 -3 13 -1 22 3 19 5 -3 9 -14 9 -25z
m31 4 c13 -16 12 -17 -3 -4 -10 7 -18 15 -18 17 0 8 8 3 21 -13z m-508 -11
c-1 -5 9 -13 22 -16 24 -6 35 -26 15 -26 -5 0 -10 4 -10 9 0 5 -9 11 -21 14
-12 3 -18 10 -14 16 3 6 1 11 -4 11 -6 0 -11 -5 -11 -12 0 -6 -3 -9 -6 -5 -3
3 -3 11 1 17 8 13 31 7 28 -8z m145 4 c-7 -8 -15 -12 -17 -11 -5 6 10 25 20
25 5 0 4 -6 -3 -14z m85 7 c-20 -7 -15 -23 5 -16 14 5 15 3 5 -8 -10 -9 -16
-10 -24 -2 -13 13 -4 33 14 32 9 0 9 -2 0 -6z m199 -10 c-6 -2 -10 -9 -7 -14
4 -5 -2 -6 -12 -2 -16 6 -16 5 -4 -11 12 -15 12 -19 -4 -34 -18 -16 -18 -16
-6 1 10 13 11 20 2 31 -10 11 -8 17 6 25 10 6 23 10 28 10 6 0 4 -3 -3 -6z
m-258 -19 c9 -24 2 -26 -12 -4 -7 11 -8 20 -3 20 5 0 12 -7 15 -16z m-269 -5
c11 -16 1 -19 -13 -3 -7 8 -8 14 -3 14 5 0 13 -5 16 -11z m557 -3 c7 4 8 2 4
-5 -9 -13 -26 -5 -25 12 0 9 2 8 6 -1 2 -6 10 -9 15 -6z m-472 -8 c0 -11 -12
-10 -30 2 -12 7 -10 9 8 7 12 0 22 -5 22 -9z m94 -28 c-6 -5 -24 21 -24 34 0
6 6 1 14 -10 8 -10 12 -21 10 -24z m46 30 c0 -5 -4 -10 -10 -10 -5 0 -10 5
-10 10 0 6 5 10 10 10 6 0 10 -4 10 -10z m80 1 c0 -5 9 -11 21 -14 12 -3 18
-10 15 -15 -3 -5 4 -23 15 -38 l21 -29 -26 28 c-15 16 -24 32 -21 37 3 4 -6
11 -20 14 -24 6 -36 26 -15 26 6 0 10 -4 10 -9z m75 -1 c-6 -9 7 -14 27 -11
10 1 31 -39 24 -47 -3 -3 -6 0 -6 7 0 7 -4 9 -10 6 -6 -4 -7 1 -3 12 3 10 3
15 -2 11 -9 -9 -45 9 -45 22 0 6 5 10 11 10 5 0 7 -4 4 -10z m65 0 c0 -5 -4
-10 -10 -10 -5 0 -10 5 -10 10 0 6 5 10 10 10 6 0 10 -4 10 -10z m-460 -4 c0
-2 -7 -7 -16 -10 -8 -3 -12 -2 -9 4 6 10 25 14 25 6z m124 -11 c-4 -8 -11 -15
-16 -15 -6 0 -5 6 2 15 7 8 14 15 16 15 2 0 1 -7 -2 -15z m-52 -10 c-2 -5 7
-13 20 -16 17 -5 13 -7 -15 -6 -21 0 -41 5 -44 10 -3 6 -1 7 5 3 7 -4 18 -4
24 0 9 6 5 11 -12 16 l-25 7 25 -2 c14 -1 24 -6 22 -12z m196 5 c-1 -3 7 -19
19 -36 17 -23 19 -34 11 -42 -9 -9 -9 -12 2 -12 7 0 11 -3 8 -6 -10 -9 -49 16
-43 27 4 5 2 9 -4 9 -5 0 -12 -5 -14 -10 -3 -6 -4 -5 -3 2 2 7 9 13 17 13 8 0
13 -6 12 -12 -2 -7 1 -13 5 -13 20 0 20 14 2 40 -11 15 -17 30 -13 34 3 3 1 6
-5 6 -7 0 -12 -5 -12 -12 0 -6 -3 -9 -6 -5 -9 8 6 29 18 25 5 -2 8 -6 6 -8z
m-248 -10 c0 -5 -4 -10 -10 -10 -5 0 -10 5 -10 10 0 6 5 10 10 10 6 0 10 -4
10 -10z m131 -20 c5 0 9 -5 9 -11 0 -8 -5 -8 -15 1 -18 15 -20 -1 -3 -18 8 -8
8 -12 1 -12 -16 0 -23 24 -15 52 5 18 7 19 10 6 2 -10 8 -18 13 -18z m34 1
c-6 -5 -25 10 -25 20 0 5 6 4 14 -3 8 -7 12 -15 11 -17z m54 -16 c0 -5 -6 -1
-14 9 -8 11 -15 24 -15 30 0 5 7 1 15 -10 8 -10 14 -23 14 -29z m72 30 c5 4 6
-1 3 -10 -5 -11 -2 -14 12 -9 16 5 16 4 4 -5 -11 -8 -18 -7 -27 6 -7 9 -13 22
-12 27 0 6 3 5 6 -2 2 -6 9 -10 14 -7z m80 0 c5 4 6 -2 2 -11 -4 -10 -2 -15 3
-11 6 3 16 1 24 -4 11 -7 9 -8 -8 -6 -23 3 -42 23 -41 42 0 6 3 4 6 -3 2 -6 9
-10 14 -7z m-172 -55 c0 -10 -3 -8 -9 5 -12 27 -12 43 0 25 5 -8 9 -22 9 -30z
m-146 -3 c-4 -6 6 -7 23 -3 22 6 26 5 18 -4 -19 -19 -47 -7 -51 20 -2 18 -1
21 6 10 5 -8 7 -18 4 -23z m32 15 c-3 -3 -11 0 -18 7 -9 10 -8 11 6 5 10 -3
15 -9 12 -12z m89 -8 c10 -25 -1 -29 -14 -5 -6 12 -7 21 -1 21 5 0 12 -7 15
-16z m156 0 c0 -8 4 -13 9 -10 4 3 16 -1 26 -8 14 -10 15 -15 5 -21 -9 -5 -11
-4 -6 3 6 11 -5 16 -26 13 -4 0 -12 8 -18 19 -7 14 -7 20 0 20 5 0 10 -7 10
-16z m110 12 c0 -3 -4 -8 -10 -11 -5 -3 -10 -1 -10 4 0 6 5 11 10 11 6 0 10
-2 10 -4z m-36 -14 c3 -5 -1 -9 -9 -9 -8 0 -15 4 -15 9 0 4 4 8 9 8 6 0 12 -4
15 -8z m-250 -18 c3 -8 2 -12 -4 -9 -6 3 -10 10 -10 16 0 14 7 11 14 -7z m160
-15 c-2 -4 0 -10 6 -14 5 -3 10 -12 10 -18 -1 -17 -24 24 -27 48 -2 16 -1 17
6 5 5 -8 8 -17 5 -21z m-178 0 c3 -6 1 -16 -6 -22 -10 -9 -12 -8 -6 7 5 16 2
17 -21 12 -21 -5 -24 -4 -13 4 20 13 37 13 46 -1z m123 -4 c3 -3 -7 -4 -23 -1
-16 3 -31 8 -35 11 -3 3 7 4 23 1 16 -3 31 -8 35 -11z m-59 -5 c26 -14 15 -43
-12 -34 -14 4 -18 2 -14 -5 4 -6 0 -14 -8 -17 -9 -3 -13 -10 -10 -15 3 -5 -2
-6 -11 -3 -10 4 -15 2 -13 -6 4 -18 -21 -24 -28 -6 -3 8 -1 23 5 33 9 15 10
13 5 -9 -4 -18 -2 -28 6 -28 6 0 8 5 5 10 -3 6 1 13 10 16 10 4 12 10 6 18 -6
7 -4 18 5 30 8 11 14 15 14 9 0 -7 -5 -15 -10 -18 -6 -4 -8 -11 -5 -16 9 -13
25 -11 23 4 -2 6 4 13 12 13 33 3 34 5 10 19 -28 16 -19 21 10 5z m-124 -18
c1 -7 0 -8 -3 -2 -8 16 -19 12 -20 -9 -2 -25 28 -22 44 4 15 24 17 11 3 -15
-7 -13 -16 -17 -28 -13 -14 5 -15 3 -4 -8 6 -7 12 -17 12 -22 0 -5 -9 1 -19
15 -17 21 -19 35 -12 66 2 9 25 -6 27 -16z m224 -8 c0 -8 -4 -14 -10 -14 -5 0
-7 7 -3 16 5 14 3 15 -15 5 -12 -7 -22 -16 -22 -22 0 -6 6 -7 13 -3 6 4 9 3 4
-1 -12 -13 -47 -16 -47 -4 0 5 5 7 11 3 8 -4 9 1 5 17 -3 13 -3 18 0 12 4 -10
10 -10 26 2 23 16 38 12 38 -11z m-89 -41 c12 -16 12 -17 -2 -6 -9 7 -20 9
-24 5 -5 -4 -5 -1 -1 6 9 16 11 15 27 -5z m-161 -8 c10 -12 9 -16 -4 -21 -8
-3 -21 -4 -28 -1 -7 3 -3 6 10 6 14 1 20 5 17 12 -4 6 -14 8 -22 5 -8 -3 -11
-1 -8 4 9 14 21 12 35 -5z m-52 -21 c0 -15 -4 -22 -10 -16 -5 5 -6 16 -2 25 9
23 12 21 12 -9z m202 6 c0 -5 -7 -6 -17 -3 -12 5 -14 3 -8 -7 5 -9 4 -11 -4
-6 -6 4 -9 12 -6 17 8 12 35 12 35 -1z m-85 -28 c16 -11 16 -13 3 -9 -10 4
-18 2 -18 -3 0 -6 -5 -10 -11 -10 -8 0 -7 6 2 16 12 15 11 16 -9 10 -12 -4
-22 -3 -22 2 0 14 33 11 55 -6z m40 8 c3 -5 1 -10 -4 -10 -6 0 -11 5 -11 10 0
6 2 10 4 10 3 0 8 -4 11 -10z m-101 -19 c9 -15 -23 -36 -36 -23 -6 6 -18 8
-27 5 -11 -4 -10 -1 4 10 22 18 51 22 59 8z m19 -31 c-13 -5 -23 -15 -23 -21
0 -7 -3 -9 -6 -6 -10 10 16 37 35 36 11 0 9 -3 -6 -9z m-52 -25 c10 -20 10
-20 -6 0 -9 11 -18 19 -21 17 -2 -2 -10 -1 -17 1 -6 3 -2 4 11 4 13 -1 28 -11
33 -22z"/>
<path d="M444 1569 c-3 -6 -1 -16 5 -22 8 -8 11 -5 11 11 0 24 -5 28 -16 11z"/>
<path d="M305 1630 c-3 -5 -1 -10 4 -10 6 0 11 5 11 10 0 6 -2 10 -4 10 -3 0
-8 -4 -11 -10z"/>
<path d="M348 1568 c9 -9 15 -9 24 0 9 9 7 12 -12 12 -19 0 -21 -3 -12 -12z"/>
<path d="M268 1088 c9 -9 15 -9 24 0 9 9 7 12 -12 12 -19 0 -21 -3 -12 -12z"/>
<path d="M475 1749 c-9 -14 -2 -20 14 -10 8 6 9 11 3 15 -6 3 -14 1 -17 -5z"/>
<path d="M440 1729 c0 -5 5 -7 10 -4 6 3 10 8 10 11 0 2 -4 4 -10 4 -5 0 -10
-5 -10 -11z"/>
<path d="M210 1451 c0 -7 -5 -9 -12 -5 -7 5 -8 3 -3 -5 5 -9 10 -10 18 -2 6 6
8 14 4 18 -4 3 -7 1 -7 -6z"/>
<path d="M193 1405 c0 -8 4 -12 9 -9 5 3 6 10 3 15 -9 13 -12 11 -12 -6z"/>
<path d="M260 1240 c0 -19 3 -21 12 -12 9 9 9 15 0 24 -9 9 -12 7 -12 -12z"/>
</g>
</svg>
